/* XPM */
static char *battery_xpm[] = {
"16 20 2 1"
"  c none",
"O c #C2C2C2",
/* pixels */
"      OOOO      ",
" OOOOOOOOOOOOOO ",
" O            O ",
" O            O ",
" O            O ",
" O            O ",
" O            O ",
" O            O ",
" O            O ",
" O            O ",
" O            O ",
" O            O ",
" O            O ",
" O            O ",
" O            O ",
" O            O ",
" O            O ",
" O            O ",
" O            O ",
" OOOOOOOOOOOOOO "
};
